# xmcd CD database file
#
# Track frame offsets:
#	150
#	16137
#	30330
#	47775
#	65232
#	78755
#	91650
#	112007
#	130797
#	146280
#	156897
#	167870
#	181002
#	199840
#	213277
#	226422
#
# Disc length: 3211 seconds
#
# Revision: 0
# Processed by: cddbd v1.5.1PL0 Copyright (c) Steve Scherf et al.
# Submitted via: CDex 1.51
#
DISCID=c90c8910
DTITLE=Various Artist - Hot Country
DYEAR=1900
DGENRE=Country
TTITLE0=Roy Orbison - You Got It
TTITLE1=The Judds - Give a Little Love to Me
TTITLE2=Eric Claption - Lay Down Sally
TTITLE3=Kenny Rogers with Sheena Easton - We've Got Tonight
TTITLE4=Glen Campbell - Southern Nights
TTITLE5=Waylon Jennings - Today I Started Loving Youu Again
TTITLE6=Alabama - The Closer You Get
TTITLE7=Juice Newton - Angel of the Morning
TTITLE8=Elvis Presley - Always on My Mind
TTITLE9=Don McLean - Crying in the Chappel
TTITLE10=Anne Murray  - Daydream Believer
TTITLE11=Rock Me by the Fire - Jean Stafford
TTITLE12=Stranger in My House - Ronnie Milsap
TTITLE13=Waylon Jennings and Willie Nelson - Good Hearted Woman
TTITLE14=Charley Pride - Kiss An Angel Good Morning
TTITLE15=Keith Glass - Victoria Bitter (She Made Me That Way)
EXTD=
EXTT0=
EXTT1=
EXTT2=
EXTT3=
EXTT4=
EXTT5=
EXTT6=
EXTT7=
EXTT8=
EXTT9=
EXTT10=
EXTT11=
EXTT12=
EXTT13=
EXTT14=
EXTT15=
PLAYORDER=
